<?xml version="1.0" encoding="utf-8"?>
<svg viewBox="3.1934 20.783 217.7594 76.5752" xmlns="http://www.w3.org/2000/svg">
  <g fill="#050a30" fill-opacity="1" transform="matrix(1, 0, 0, 1, 0.10649300366640091, -1.2720609903335571)">
    <g transform="translate(34.586885, 57.805061)">
      <g>
        <path d="M 29.90625 -22.171875 C 29.90625 -17.953125 28.359375 -14.539062 25.265625 -11.9375 C 22.628906 -9.707031 19.648438 -8.59375 16.328125 -8.59375 L 14.296875 -8.59375 L 14.296875 -17.203125 L 16.328125 -17.203125 C 17.742188 -17.203125 18.925781 -17.675781 19.875 -18.625 C 20.832031 -19.570312 21.3125 -20.753906 21.3125 -22.171875 C 21.3125 -23.554688 20.828125 -24.734375 19.859375 -25.703125 C 18.890625 -26.671875 17.710938 -27.15625 16.328125 -27.15625 L 12.078125 -27.15625 L 12.078125 0 L 2.5625 0 L 2.5625 -27.15625 L 12.078125 -35.75 L 16.375 -35.75 C 19.695312 -35.75 22.675781 -34.625 25.3125 -32.375 C 28.375 -29.757812 29.90625 -26.359375 29.90625 -22.171875 Z M 29.90625 -22.171875 "/>
      </g>
    </g>
  </g>
  <g fill="#050a30" fill-opacity="1" transform="matrix(1, 0, 0, 1, -2.2844600677490234, -1.0880060195922852)">
    <g transform="translate(107.669079, 57.805061)">
      <g>
        <path d="M 36.71875 -35.75 L 27.203125 -27.15625 L 12.171875 -27.15625 L 12.171875 -22.171875 L 27.203125 -22.171875 L 27.203125 -13.578125 L 12.171875 -13.578125 L 12.171875 -8.59375 L 27.203125 -8.59375 L 27.203125 0 L 2.65625 0 L 2.65625 -27.15625 L 12.171875 -35.75 Z M 36.71875 -35.75 "/>
      </g>
    </g>
  </g>
  <g fill="#050a30" fill-opacity="1" transform="matrix(1, 0, 0, 1, -2.2844600677490234, -1.0880060195922852)">
    <g transform="translate(97.335106, 57.621007)">
      <g>
        <path d="M 12.015625 0 L 3.078125 0 L 3.078125 -26.3125 L 12.015625 -34.375 Z M 12.015625 0 "/>
      </g>
    </g>
  </g>
  <g fill="#050a30" fill-opacity="1" transform="matrix(1, 0, 0, 1, -2.2844600677490234, -1.0880060195922852)">
    <g transform="translate(133.041893, 57.805061)">
      <g>
        <path d="M 34.203125 -35.75 L 24.6875 -27.15625 L 13.625 -27.15625 C 12.976562 -27.15625 12.410156 -26.921875 11.921875 -26.453125 C 11.441406 -25.984375 11.203125 -25.425781 11.203125 -24.78125 C 11.203125 -23.039062 12.425781 -22.171875 14.875 -22.171875 C 17.9375 -22.171875 20.515625 -21.097656 22.609375 -18.953125 C 24.703125 -16.816406 25.75 -14.203125 25.75 -11.109375 C 25.75 -8.015625 24.675781 -5.390625 22.53125 -3.234375 C 20.394531 -1.078125 17.78125 0 14.6875 0 L 1.453125 0 L 1.453125 -8.59375 L 13.859375 -8.59375 C 14.503906 -8.59375 15.050781 -8.828125 15.5 -9.296875 C 15.957031 -9.765625 16.1875 -10.320312 16.1875 -10.96875 C 16.1875 -12.707031 14.992188 -13.578125 12.609375 -13.578125 C 9.546875 -13.578125 6.953125 -14.65625 4.828125 -16.8125 C 2.703125 -18.96875 1.640625 -21.578125 1.640625 -24.640625 C 1.640625 -27.503906 2.765625 -30.070312 5.015625 -32.34375 C 7.273438 -34.613281 9.835938 -35.75 12.703125 -35.75 Z M 34.203125 -35.75 "/>
      </g>
    </g>
  </g>
  <g fill="#050a30" fill-opacity="1" transform="matrix(1, 0, 0, 1, -2.7452919483184814, -1.0880060195922852)">
    <g transform="translate(166.25271, 58.606318)">
      <g>
        <path d="M 34.203125 -35.75 L 24.6875 -27.15625 L 13.625 -27.15625 C 12.976562 -27.15625 12.410156 -26.921875 11.921875 -26.453125 C 11.441406 -25.984375 11.203125 -25.425781 11.203125 -24.78125 C 11.203125 -23.039062 12.425781 -22.171875 14.875 -22.171875 C 17.9375 -22.171875 20.515625 -21.097656 22.609375 -18.953125 C 24.703125 -16.816406 25.75 -14.203125 25.75 -11.109375 C 25.75 -8.015625 24.675781 -5.390625 22.53125 -3.234375 C 20.394531 -1.078125 17.78125 0 14.6875 0 L 1.453125 0 L 1.453125 -8.59375 L 13.859375 -8.59375 C 14.503906 -8.59375 15.050781 -8.828125 15.5 -9.296875 C 15.957031 -9.765625 16.1875 -10.320312 16.1875 -10.96875 C 16.1875 -12.707031 14.992188 -13.578125 12.609375 -13.578125 C 9.546875 -13.578125 6.953125 -14.65625 4.828125 -16.8125 C 2.703125 -18.96875 1.640625 -21.578125 1.640625 -24.640625 C 1.640625 -27.503906 2.765625 -30.070312 5.015625 -32.34375 C 7.273438 -34.613281 9.835938 -35.75 12.703125 -35.75 Z M 34.203125 -35.75 "/>
      </g>
    </g>
  </g>
  <g fill="#050a30" fill-opacity="1" transform="matrix(1, 0, 0, 1, -2.9094910621643066, -1.0880060195922852)">
    <g transform="translate(155.073167, 58.606318)">
      <g>
        <path d="M 12.796875 0 L 3.28125 0 L 3.28125 -28.015625 L 12.796875 -36.625 Z M 12.796875 0 "/>
      </g>
    </g>
  </g>
  <g fill="#050a30" fill-opacity="1" style="" transform="matrix(1, 0, 0, 0.9759699702262878, -0.1994900107383728, -1.5508220195770264)">
    <g transform="translate(0.736616, 100.859032)">
      <g>
        <path d="M 36.71875 -35.75 L 27.203125 -27.15625 L 12.171875 -27.15625 L 12.171875 -22.171875 L 27.203125 -22.171875 L 27.203125 -13.578125 L 12.171875 -13.578125 L 12.171875 -8.59375 L 27.203125 -8.59375 L 27.203125 0 L 2.65625 0 L 2.65625 -27.15625 L 12.171875 -35.75 Z M 36.71875 -35.75 "/>
      </g>
    </g>
  </g>
  <g fill="#050a30" fill-opacity="1" style="" transform="matrix(1, 0, 0, 0.9759690165519714, -0.1994900107383728, -1.5507349967956543)">
    <g transform="translate(26.974276, 100.859032)">
      <g>
        <path d="M 30.671875 -17.828125 C 30.671875 -13.253906 29.015625 -9.164062 25.703125 -5.5625 C 22.316406 -1.851562 18.351562 0 13.8125 0 L 13.8125 -8.59375 C 15.550781 -8.59375 17.242188 -9.707031 18.890625 -11.9375 C 20.398438 -14.03125 21.15625 -15.992188 21.15625 -17.828125 C 21.15625 -20.367188 20.210938 -22.554688 18.328125 -24.390625 C 16.453125 -26.234375 14.238281 -27.15625 11.6875 -27.15625 L 11.6875 0 L 2.171875 0 L 2.171875 -27.15625 L 11.6875 -35.75 L 12.75 -35.75 C 17.550781 -35.75 21.738281 -33.960938 25.3125 -30.390625 C 28.882812 -26.816406 30.671875 -22.628906 30.671875 -17.828125 Z M 30.671875 -17.828125 "/>
      </g>
    </g>
  </g>
  <g fill="#050a30" fill-opacity="1" style="" transform="matrix(0.9667670130729675, 0, 0, 0.9420270323753357, 1.4376970529556274, 1.3280450105667114)">
    <g transform="translate(55.324886, 100.859032)">
      <g>
        <path d="M 29.1875 -13 C 29.1875 -3.945312 24.753906 0.578125 15.890625 0.578125 C 7.035156 0.578125 2.609375 -3.945312 2.609375 -13 L 2.609375 -27.96875 L 12.125 -36.578125 L 12.125 -13 C 12.125 -9.675781 13.378906 -8.015625 15.890625 -8.015625 C 18.398438 -8.015625 19.65625 -9.675781 19.65625 -13 L 19.65625 -35.75 L 29.1875 -35.75 Z M 29.1875 -13 "/>
      </g>
    </g>
  </g>
  <g fill="#050a30" fill-opacity="1" style="" transform="matrix(1, 0, 0, 0.9705990552902222, -0.1994900107383728, -1.2043490409851074)">
    <g transform="translate(80.606629, 101.060254)">
      <g>
        <path d="M 35.28125 -36.0625 L 25.6875 -27.390625 L 23.6875 -27.390625 C 20.695312 -27.390625 18.113281 -26.59375 15.9375 -25 C 13.53125 -23.25 12.328125 -20.925781 12.328125 -18.03125 C 12.328125 -15.175781 13.546875 -12.867188 15.984375 -11.109375 C 18.160156 -9.484375 20.726562 -8.671875 23.6875 -8.671875 L 25.6875 -8.671875 L 25.6875 0 L 23 0 C 17.507812 0 12.816406 -1.609375 8.921875 -4.828125 C 4.796875 -8.234375 2.734375 -12.632812 2.734375 -18.03125 C 2.734375 -23.394531 4.8125 -27.796875 8.96875 -31.234375 C 12.863281 -34.453125 17.539062 -36.0625 23 -36.0625 Z M 35.28125 -36.0625 "/>
      </g>
    </g>
  </g>
  <g fill="#050a30" fill-opacity="1" transform="matrix(1, 0, 0, 0.9580610990524292, -0.5092359781265259, 0.29299703240395303)" style="">
    <g transform="translate(106.106619, 100.257469)">
      <g>
        <path d="M 25.25 0 L 18.671875 0 L 18.671875 -3.34375 L 6.875 -3.34375 L 13.5 -9.390625 L 18.671875 -9.390625 L 18.671875 -15.9375 L 0.375 0.5625 L 0.375 -8.15625 L 18.671875 -24.71875 L 25.25 -24.71875 Z M 25.25 0 "/>
      </g>
    </g>
  </g>
  <g fill="#050a30" fill-opacity="1" style="" transform="matrix(1, 0, 0, 0.9365370273590088, -0.1994900107383728, 1.0718740224838257)">
    <g transform="translate(141.911297, 102.604446)">
      <g>
        <path d="M 12.796875 0 L 3.28125 0 L 3.28125 -28.015625 L 12.796875 -36.625 Z M 12.796875 0 "/>
      </g>
    </g>
  </g>
  <g fill="#050a30" fill-opacity="1" transform="matrix(1, 0, 0, 1, -0.1994900107383728, -3.115360975265503)">
    <g transform="translate(123.561883, 100.28012)">
      <g>
        <path d="M 29.828125 -34.328125 L 20.6875 -26.078125 L 18.78125 -26.078125 L 18.78125 0 L 9.65625 0 L 9.65625 -26.078125 L 0.046875 -26.078125 L 9.1875 -34.328125 Z M 29.828125 -34.328125 "/>
      </g>
    </g>
  </g>
  <g fill="#050a30" fill-opacity="1" style="" transform="matrix(1.0947409868240356, 0, 0, 1.0654300451278687, -18.67787742614746, -9.790079116821286)">
    <g transform="translate(156.323606, 100.0517)">
      <g>
        <path d="M 32.125 -15.71875 C 32.125 -10.988281 30.789062 -7.148438 28.125 -4.203125 C 25.351562 -1.117188 21.628906 0.421875 16.953125 0.421875 C 12.273438 0.421875 8.566406 -1.117188 5.828125 -4.203125 C 3.191406 -7.148438 1.875 -10.988281 1.875 -15.71875 C 1.875 -20.445312 3.191406 -24.285156 5.828125 -27.234375 C 8.566406 -30.316406 12.273438 -31.859375 16.953125 -31.859375 C 21.679688 -31.859375 25.421875 -30.332031 28.171875 -27.28125 C 30.804688 -24.363281 32.125 -20.507812 32.125 -15.71875 Z M 23.75 -15.71875 C 23.75 -18.15625 23.238281 -20.140625 22.21875 -21.671875 C 21.03125 -23.421875 19.273438 -24.296875 16.953125 -24.296875 C 12.472656 -24.296875 10.234375 -21.4375 10.234375 -15.71875 C 10.234375 -13.25 10.71875 -11.265625 11.6875 -9.765625 C 12.84375 -8.015625 14.597656 -7.140625 16.953125 -7.140625 C 19.328125 -7.140625 21.097656 -8.015625 22.265625 -9.765625 C 23.253906 -11.242188 23.75 -13.226562 23.75 -15.71875 Z M 23.75 -15.71875 "/>
      </g>
    </g>
  </g>
  <g fill="#050a30" fill-opacity="1" style="" transform="matrix(1, 0, 0, 0.9688280820846558, -0.1994900107383728, -1.0555310249328613)">
    <g transform="translate(185.183474, 100.970797)">
      <g>
        <path d="M 35.96875 0.609375 L 11.921875 -21.03125 L 11.921875 0 L 2.640625 0 L 2.640625 -27.71875 L 10.609375 -34.890625 L 26.6875 -20.265625 L 26.6875 -34.890625 L 35.96875 -34.890625 Z M 35.96875 0.609375 "/>
      </g>
    </g>
  </g>
  <g fill="#050a30" fill-opacity="1" transform="matrix(1, 0, 0, 1, -1.5089399814605713, -0.8140460252761841)">
    <g transform="translate(98.599479, 27.441735)">
      <g>
        <path d="M 6.796875 -2.640625 C 6.796875 -1.785156 6.492188 -1.054688 5.890625 -0.453125 C 5.296875 0.140625 4.566406 0.4375 3.703125 0.4375 C 2.835938 0.4375 2.109375 0.140625 1.515625 -0.453125 C 0.921875 -1.054688 0.625 -1.785156 0.625 -2.640625 C 0.625 -3.503906 0.921875 -4.234375 1.515625 -4.828125 C 2.109375 -5.429688 2.835938 -5.734375 3.703125 -5.734375 C 4.566406 -5.734375 5.296875 -5.429688 5.890625 -4.828125 C 6.492188 -4.234375 6.796875 -3.503906 6.796875 -2.640625 Z M 6.796875 -2.640625 "/>
      </g>
    </g>
  </g>
  <g fill="#050a30" fill-opacity="1" style="" transform="matrix(1.0947409868240356, 0, 0, 1.0654300451278687, -108.58687591552734, -49.52924728393555)">
    <g transform="translate(156.323606, 100.0517)">
      <g>
        <path d="M 32.125 -15.71875 C 32.125 -10.988281 30.789062 -7.148438 28.125 -4.203125 C 25.351562 -1.117188 21.628906 0.421875 16.953125 0.421875 C 12.273438 0.421875 8.566406 -1.117188 5.828125 -4.203125 C 3.191406 -7.148438 1.875 -10.988281 1.875 -15.71875 C 1.875 -20.445312 3.191406 -24.285156 5.828125 -27.234375 C 8.566406 -30.316406 12.273438 -31.859375 16.953125 -31.859375 C 21.679688 -31.859375 25.421875 -30.332031 28.171875 -27.28125 C 30.804688 -24.363281 32.125 -20.507812 32.125 -15.71875 Z M 23.75 -15.71875 C 23.75 -18.15625 23.238281 -20.140625 22.21875 -21.671875 C 21.03125 -23.421875 19.273438 -24.296875 16.953125 -24.296875 C 12.472656 -24.296875 10.234375 -21.4375 10.234375 -15.71875 C 10.234375 -13.25 10.71875 -11.265625 11.6875 -9.765625 C 12.84375 -8.015625 14.597656 -7.140625 16.953125 -7.140625 C 19.328125 -7.140625 21.097656 -8.015625 22.265625 -9.765625 C 23.253906 -11.242188 23.75 -13.226562 23.75 -15.71875 Z M 23.75 -15.71875 "/>
      </g>
    </g>
  </g>
</svg>